<?xml version="1.0" standalone="yes"?>
<svg xmlns="http://www.w3.org/2000/svg" width="250" height="250">
<path style="fill:#ffffff; stroke:none;" d="M0 0L0 250L250 250L250 0L0 0z"/>
<path style="fill:#a4cbef; stroke:none;" d="M149 64L150 64L151 58C173.274 58 200.337 53.8424 222 59C217.561 55.6373 210.379 57 205 57L164 57C156.674 57 150.848 55.6263 149 64z"/>
<path style="fill:#3db6fd; stroke:none;" d="M151 58L127 144L196 144C202.586 144 216.185 146.551 221.566 142.142C225.711 138.747 224 129.741 224 125L224 78C224 73.2914 226.036 62.2555 221.566 59.179C217.117 56.1167 207.195 58 202 58L151 58z"/>
<path style="fill:#a4cbef; stroke:none;" d="M223 60L224 61L223 60M224 61C224 87.0403 227.753 116.397 223 142L224 142C230.847 125.773 226 99.5314 226 82C226 75.6127 227.721 66.4467 224 61M148.333 66.6667L148.667 67.3333L148.333 66.6667M147 68L145 78L146 78L147 68M158 70L157 81L158 81L158 71L162 72L158 70z"/>
<path style="fill:#ffffff; stroke:none;" d="M158 71L159.028 81.6065L171 87.9892L200 100L200 101L171 113.421L159.179 119.419L158 130C172.88 127.347 188.3 117.246 202 110.952C207.91 108.237 214.891 106.232 212.682 98.0934C211.247 92.8068 203.445 90.8258 199 88.8603C185.805 83.0266 171.969 74.5201 158 71z"/>
<path style="fill:#a4cbef; stroke:none;" d="M163 72L163 73L169 75L169 74L163 72M169.667 75.3333L170.333 75.6667L169.667 75.3333M171.667 76.3333L172.333 76.6667L171.667 76.3333M173 77L173 78L178 79L178 78L173 77M144.333 79.6667L144.667 80.3333L144.333 79.6667M178.667 79.3333L179.333 79.6667L178.667 79.3333M180.667 80.3333L181.333 80.6667L180.667 80.3333M182 81L182 82L189 84L189 83L182 81M143 82L142 89L143 89L143 82M158 82L159 83L158 82M159.667 83.3333L160.333 83.6667L159.667 83.3333M161.667 84.3333L162.333 84.6667L161.667 84.3333M189.667 84.3333L190.333 84.6667L189.667 84.3333M163 85L163 86L166 86L163 85M191.667 85.3333L192.333 85.6667L191.667 85.3333M166.667 86.3333L167.333 86.6667L166.667 86.3333M193 86L193 87L197 88L197 87L193 86M168.667 87.3333L169.333 87.6667L168.667 87.3333M171.667 88.3333L172.333 88.6667L171.667 88.3333M198.667 88.3333L199.333 88.6667L198.667 88.3333M141 89L141 92L142 92L141 89M173.667 89.3333L174.333 89.6667L173.667 89.3333M200.667 89.3333L201.333 89.6667L200.667 89.3333M175 90L175 91L180 92L180 91L175 90M202 90L202 91L206 92L206 91L202 90M180.667 92.3333L181.333 92.6667L180.667 92.3333M207 92L208 93L207 92M140.333 93.6667L140.667 94.3333L140.333 93.6667M182 93L182 94L187 95L187 94L182 93M209 93L210 94L209 93M210 94L210 95L213 106L214 106C214 101.31 215.237 95.7382 210 94M187.667 95.3333L188.333 95.6667L187.667 95.3333M139 96L139 99L140 99L139 96M190 96L191 97L190 96M192.667 97.3333L193.333 97.6667L192.667 97.3333M194 98L194 99L199 100L199 99L194 98M138 99L137 106L138 106L138 99M199 100L200 101L199 100M197.667 101.333L198.333 101.667L197.667 101.333M26 107C35.9442 101.103 47.7432 103 59 103L125 103C118.564 100.299 108.951 102 102 102L50 102C41.746 102 31.6604 99.8593 26 107M195.667 102.333L196.333 102.667L195.667 102.333z"/>
<path style="fill:#4a7edc; stroke:none;" d="M31 103L31 104L124 104L122 112L123 112L125 103L31 103z"/>
<path style="fill:#a4cbef; stroke:none;" d="M192 103L192 104L195 104L192 103z"/>
<path style="fill:#4a7edc; stroke:none;" d="M29 104L30 105L29 104z"/>
<path style="fill:#0752e6; stroke:none;" d="M100 189C103.824 160.599 116.223 131.609 124 104L56 104C49.2317 104 35.1879 101.338 29.419 105.179C24.6307 108.367 26 117.125 26 122L26 170C26 175.123 24.3081 184.519 29.3943 187.821C34.032 190.832 43.665 189 49 189L100 189z"/>
<path style="fill:#a4cbef; stroke:none;" d="M125 104L126 105L125 104M190.667 104.333L191.333 104.667L190.667 104.333M124.333 105.667L124.667 106.333L124.333 105.667M188.667 105.333L189.333 105.667L188.667 105.333z"/>
<path style="fill:#4a7edc; stroke:none;" d="M27 106L28 107L27 106z"/>
<path style="fill:#a4cbef; stroke:none;" d="M136 106L136 109L137 109L136 106M183 107L183 108L188 107L183 107M209 107L209 108L213 107L209 107z"/>
<path style="fill:#4a7edc; stroke:none;" d="M26 107L26 110L27 110L26 107z"/>
<path style="fill:#a4cbef; stroke:none;" d="M25 108L25 185L26 185L26 132L25 108M181.667 108.333L182.333 108.667L181.667 108.333M208 108L209 109L208 108M123 109L124 110L123 109M179 109L180 110L179 109M205 109L206 110L205 109M135.333 110.667L135.667 111.333L135.333 110.667M176.667 110.333L177.333 110.667L176.667 110.333M200 111L200 112L205 111L200 111M172 112L172 113L176 112L172 112M122 112L120 120L121 120L122 112M134 112L134 116L135 116L134 112M199 112L200 113L199 112z"/>
<path style="fill:#4a7edc; stroke:none;" d="M121 113L122 114L121 113z"/>
<path style="fill:#a4cbef; stroke:none;" d="M169.667 113.333L170.333 113.667L169.667 113.333M196.667 113.333L197.333 113.667L196.667 113.333z"/>
<path style="fill:#3db6fd; stroke:none;" d="M121 114L122 115L121 114z"/>
<path style="fill:#a4cbef; stroke:none;" d="M164 115L164 116L169 115L164 115M194.667 114.333L195.333 114.667L194.667 114.333z"/>
<path style="fill:#4a7edc; stroke:none;" d="M88 117L88 118L93 117L92 129C96.1078 125.41 95.4087 114.168 88 117z"/>
<path style="fill:#a4cbef; stroke:none;" d="M190 116L190 117L194 116L190 116M133 116L133 119L134 119L133 116M162.667 116.333L163.333 116.667L162.667 116.333M89 117L85 119L85 120L90 118L89 117z"/>
<path style="fill:#ffffff; stroke:none;" d="M38 152L92 176L90.9722 165.557L79 159.142L51 147L51 146L80 133.691L90.9722 127.606L92 117L55 133.777L39.6034 141.688L38 152z"/>
<path style="fill:#a4cbef; stroke:none;" d="M92 117L92 128L93 128L92 117z"/>
<path style="fill:#4a7edc; stroke:none;" d="M120 117L121 118L120 117z"/>
<path style="fill:#a4cbef; stroke:none;" d="M160 117L161 118L160 117M188 117L189 118L188 117z"/>
<path style="fill:#4a7edc; stroke:none;" d="M85.6667 118.333L86.3333 118.667L85.6667 118.333z"/>
<path style="fill:#a4cbef; stroke:none;" d="M158.333 118.667L158.667 119.333L158.333 118.667M185.667 118.333L186.333 118.667L185.667 118.333z"/>
<path style="fill:#4a7edc; stroke:none;" d="M79 121L79 122L85 120L79 121z"/>
<path style="fill:#a4cbef; stroke:none;" d="M183.667 119.333L184.333 119.667L183.667 119.333M83 120L84 121L83 120z"/>
<path style="fill:#4a7edc; stroke:none;" d="M119 120L118 126L119 126L119 120z"/>
<path style="fill:#a4cbef; stroke:none;" d="M132.333 120.667L132.667 121.333L132.333 120.667M157 120L157 130L158 130L157 120M181.667 120.333L182.333 120.667L181.667 120.333M81 121L82 122L81 121M179 121L180 122L179 121z"/>
<path style="fill:#4a7edc; stroke:none;" d="M77 122L78 123L77 122z"/>
<path style="fill:#a4cbef; stroke:none;" d="M78.6667 122.333L79.3333 122.667L78.6667 122.333M174 123L174 124L178 123L174 123z"/>
<path style="fill:#4a7edc; stroke:none;" d="M71 125L71 126L76 124L71 125z"/>
<path style="fill:#a4cbef; stroke:none;" d="M76.6667 123.333L77.3333 123.667L76.6667 123.333M119 123L120 124L119 123M131 123L131 126L132 126L131 123M74.6667 124.333L75.3333 124.667L74.6667 124.333M172.667 124.333L173.333 124.667L172.667 124.333M72 125L73 126L72 125M170.667 125.333L171.333 125.667L170.667 125.333z"/>
<path style="fill:#4a7edc; stroke:none;" d="M68.6667 126.333L69.3333 126.667L68.6667 126.333z"/>
<path style="fill:#a4cbef; stroke:none;" d="M70 126L71 127L70 126M118 126L116 134L117 134L118 126M130 126L130 130L131 130L130 126M165 127L165 128L169 127L165 127z"/>
<path style="fill:#4a7edc; stroke:none;" d="M66 127L62 129L62 130L67 128L66 127z"/>
<path style="fill:#a4cbef; stroke:none;" d="M67 127L67 128L70 128L67 127z"/>
<path style="fill:#4a7edc; stroke:none;" d="M117 127L118 128L117 127z"/>
<path style="fill:#a4cbef; stroke:none;" d="M66 128L67 129L66 128M91 128L92 129L91 128M163.667 128.333L164.333 128.667L163.667 128.333M64 129L65 130L64 129M89.6667 129.333L90.3333 129.667L89.6667 129.333M161.667 129.333L162.333 129.667L161.667 129.333z"/>
<path style="fill:#4a7edc; stroke:none;" d="M60 130L61 131L60 130z"/>
<path style="fill:#a4cbef; stroke:none;" d="M61 130L62 131L61 130M87 130L88 131L87 130z"/>
<path style="fill:#4a7edc; stroke:none;" d="M88.6667 130.333L89.3333 130.667L88.6667 130.333z"/>
<path style="fill:#a4cbef; stroke:none;" d="M129 130L129 133L130 133L129 130M158 130L158 131L161 131L158 130z"/>
<path style="fill:#4a7edc; stroke:none;" d="M57 131L53 133L53 134L58 132L57 131z"/>
<path style="fill:#a4cbef; stroke:none;" d="M58 131L58 132L61 132L58 131M80 133L80 134L86 132L80 133z"/>
<path style="fill:#4a7edc; stroke:none;" d="M86.6667 131.333L87.3333 131.667L86.6667 131.333M116 131L117 132L116 131z"/>
<path style="fill:#a4cbef; stroke:none;" d="M57 132L58 133L57 132z"/>
<path style="fill:#4a7edc; stroke:none;" d="M84.6667 132.333L85.3333 132.667L84.6667 132.333z"/>
<path style="fill:#a4cbef; stroke:none;" d="M55 133L56 134L55 133z"/>
<path style="fill:#4a7edc; stroke:none;" d="M82 133L83 134L82 133M115 133L114 139L115 139L115 133M51 134L52 135L51 134z"/>
<path style="fill:#a4cbef; stroke:none;" d="M52.6667 134.333L53.3333 134.667L52.6667 134.333M78 134L79 135L78 134z"/>
<path style="fill:#4a7edc; stroke:none;" d="M79.6667 134.333L80.3333 134.667L79.6667 134.333z"/>
<path style="fill:#a4cbef; stroke:none;" d="M128.333 134.667L128.667 135.333L128.333 134.667z"/>
<path style="fill:#4a7edc; stroke:none;" d="M43 138L43 139L50 136L43 138z"/>
<path style="fill:#a4cbef; stroke:none;" d="M50.6667 135.333L51.3333 135.667L50.6667 135.333M71 137L71 138L77 136L71 137z"/>
<path style="fill:#4a7edc; stroke:none;" d="M77.6667 135.333L78.3333 135.667L77.6667 135.333z"/>
<path style="fill:#a4cbef; stroke:none;" d="M48.6667 136.333L49.3333 136.667L48.6667 136.333z"/>
<path style="fill:#4a7edc; stroke:none;" d="M75.6667 136.333L76.3333 136.667L75.6667 136.333z"/>
<path style="fill:#a4cbef; stroke:none;" d="M115.333 136.667L115.667 137.333L115.333 136.667M46 137L47 138L46 137z"/>
<path style="fill:#3db6fd; stroke:none;" d="M72 137L73 138L72 137z"/>
<path style="fill:#4a7edc; stroke:none;" d="M73 137L74 138L73 137z"/>
<path style="fill:#a4cbef; stroke:none;" d="M127 137L127 140L128 140L127 137M44 138L45 139L44 138M69 138L70 139L69 138z"/>
<path style="fill:#4a7edc; stroke:none;" d="M70 138L71 139L70 138M40 139L41 140L40 139z"/>
<path style="fill:#a4cbef; stroke:none;" d="M41 139L41 140L44 140L41 139M60 142L60 143L68 140L60 142z"/>
<path style="fill:#4a7edc; stroke:none;" d="M68.6667 139.333L69.3333 139.667L68.6667 139.333z"/>
<path style="fill:#a4cbef; stroke:none;" d="M114 139L112 148L113 148L114 139z"/>
<path style="fill:#4a7edc; stroke:none;" d="M38 140C35.213 145.222 34.6711 151.673 41 154L41 153C35.4811 149.615 37.8745 145.373 38 140z"/>
<path style="fill:#3db6fd; stroke:none;" d="M39 140L40 141L39 140z"/>
<path style="fill:#a4cbef; stroke:none;" d="M40 140L41 141L40 140z"/>
<path style="fill:#4a7edc; stroke:none;" d="M66.6667 140.333L67.3333 140.667L66.6667 140.333M113.333 140.667L113.667 141.333L113.333 140.667z"/>
<path style="fill:#a4cbef; stroke:none;" d="M126 140L126 145L189 145L222 144L222 143L127 144L126 140M38 141L39 142L38 141z"/>
<path style="fill:#4a7edc; stroke:none;" d="M63.6667 141.333L64.3333 141.667L63.6667 141.333z"/>
<path style="fill:#a4cbef; stroke:none;" d="M37 142L37 151L38 151L37 142z"/>
<path style="fill:#4a7edc; stroke:none;" d="M61 142L62 143L61 142z"/>
<path style="fill:#a4cbef; stroke:none;" d="M222 142L223 143L222 142M57 143L58 144L57 143z"/>
<path style="fill:#4a7edc; stroke:none;" d="M58 143L58 144L61 144L58 143z"/>
<path style="fill:#a4cbef; stroke:none;" d="M51 146L51 147L58 150L58 149L52 147L52 146L56 145L51 146z"/>
<path style="fill:#4a7edc; stroke:none;" d="M56.6667 144.333L57.3333 144.667L56.6667 144.333M112.333 144.667L112.667 145.333L112.333 144.667M54.6667 145.333L55.3333 145.667L54.6667 145.333M52 146L53 147L52 146M54 147L55 148L54 147M111 147L109 156L110 156L111 147M56.6667 148.333L57.3333 148.667L56.6667 148.333M58 149L58 150L61 151L58 149z"/>
<path style="fill:#a4cbef; stroke:none;" d="M59 150L60 151L59 150M111 150L112 151L111 150z"/>
<path style="fill:#3db6fd; stroke:none;" d="M37 151L38 152L37 151z"/>
<path style="fill:#a4cbef; stroke:none;" d="M61 151L61 152L67 154L67 153L61 151z"/>
<path style="fill:#4a7edc; stroke:none;" d="M63 151L64 152L63 151z"/>
<path style="fill:#a4cbef; stroke:none;" d="M39.6667 152.333L40.3333 152.667L39.6667 152.333z"/>
<path style="fill:#4a7edc; stroke:none;" d="M65.6667 152.333L66.3333 152.667L65.6667 152.333z"/>
<path style="fill:#a4cbef; stroke:none;" d="M41 153L41 154L44 155L41 153z"/>
<path style="fill:#4a7edc; stroke:none;" d="M67 153L67 154L71 155L71 154L67 153z"/>
<path style="fill:#a4cbef; stroke:none;" d="M110 153L110 156L111 156L110 153z"/>
<path style="fill:#4a7edc; stroke:none;" d="M42 154L43 155L42 154z"/>
<path style="fill:#a4cbef; stroke:none;" d="M68 154L69 155L68 154z"/>
<path style="fill:#4a7edc; stroke:none;" d="M44 155L47 157L47 156L44 155z"/>
<path style="fill:#a4cbef; stroke:none;" d="M45.6667 155.333L46.3333 155.667L45.6667 155.333M70 155L70 156L76 158L76 157L70 155z"/>
<path style="fill:#4a7edc; stroke:none;" d="M72 155L73 156L72 155z"/>
<path style="fill:#a4cbef; stroke:none;" d="M47 156L47 157L53 159L53 158L47 156z"/>
<path style="fill:#4a7edc; stroke:none;" d="M74.6667 156.333L75.3333 156.667L74.6667 156.333z"/>
<path style="fill:#a4cbef; stroke:none;" d="M109 156L108 162L109 162L109 156z"/>
<path style="fill:#4a7edc; stroke:none;" d="M48 157L49 158L48 157M76 157L76 158L80 159L80 158L76 157M108.333 157.667L108.667 158.333L108.333 157.667M51 158L52 159L51 158z"/>
<path style="fill:#a4cbef; stroke:none;" d="M77 158L78 159L77 158z"/>
<path style="fill:#4a7edc; stroke:none;" d="M52 159L52 160L56 161L56 160L52 159z"/>
<path style="fill:#a4cbef; stroke:none;" d="M54 159L55 160L54 159M80 159L80 160L85 162L85 161L80 159z"/>
<path style="fill:#4a7edc; stroke:none;" d="M81.6667 159.333L82.3333 159.667L81.6667 159.333z"/>
<path style="fill:#a4cbef; stroke:none;" d="M56 160L56 161L62 163L62 162L56 160z"/>
<path style="fill:#4a7edc; stroke:none;" d="M84 160L85 161L84 160M57 161L58 162L57 161M85 161L85 162L89 163L89 162L85 161M107 161L105 169L106 169L107 161M59 162L60 163L59 162z"/>
<path style="fill:#a4cbef; stroke:none;" d="M86 162L87 163L86 162z"/>
<path style="fill:#4a7edc; stroke:none;" d="M62 163L62 164L67 166L67 165L62 163z"/>
<path style="fill:#a4cbef; stroke:none;" d="M63 163L64 164L63 163M89 163L89 164C92.6686 167.886 92.183 172.031 91 177L92 177C93.5375 171.798 94.0466 166.096 89 163z"/>
<path style="fill:#4a7edc; stroke:none;" d="M90 163L91 164L90 163z"/>
<path style="fill:#a4cbef; stroke:none;" d="M107.333 163.667L107.667 164.333L107.333 163.667M65.6667 164.333L66.3333 164.667L65.6667 164.333z"/>
<path style="fill:#4a7edc; stroke:none;" d="M92 164L93 165L92 164z"/>
<path style="fill:#a4cbef; stroke:none;" d="M67 165L67 166L70 167L67 165z"/>
<path style="fill:#4a7edc; stroke:none;" d="M93 165L91 178C95.0167 175.396 94.7321 169.128 93 165M68 166L69 167L68 166M70 167L70 168L75 170L75 169L70 167z"/>
<path style="fill:#a4cbef; stroke:none;" d="M72 167L73 168L72 167M106.333 167.667L106.667 168.333L106.333 167.667M74 168L75 169L74 168M75 169L75 170L81 172L81 171L75 169M105 169L104 176L105 176L105 169z"/>
<path style="fill:#4a7edc; stroke:none;" d="M76.6667 170.333L77.3333 170.667L76.6667 170.333M79 171L80 172L79 171M104.333 171.667L104.667 172.333L104.333 171.667M80 172L80 173L84 174L84 173L80 172z"/>
<path style="fill:#a4cbef; stroke:none;" d="M82.6667 172.333L83.3333 172.667L82.6667 172.333M84 173L84 174L88 175L88 174L84 173z"/>
<path style="fill:#4a7edc; stroke:none;" d="M85 174L86 175L85 174M88 175L91 177L91 176L88 175z"/>
<path style="fill:#a4cbef; stroke:none;" d="M89 175L90 176L89 175z"/>
<path style="fill:#4a7edc; stroke:none;" d="M103 176L101 183L102 183L103 176z"/>
<path style="fill:#a4cbef; stroke:none;" d="M103 177L104 178L103 177M102.333 181.667L102.667 182.333L102.333 181.667M101 183L100 189L101 189L101 183z"/>
<path style="fill:#4a7edc; stroke:none;" d="M26 184L27 188L28 188L26 184M100.333 185.667L100.667 186.333L100.333 185.667z"/>
<path style="fill:#a4cbef; stroke:none;" d="M26 186L27 187L26 186M27 188L27 189L54 191L100 191L100 190C76.8116 190 49.4318 193.935 27 188z"/>
<path style="fill:#4a7edc; stroke:none;" d="M29 188L30 189L29 188M31 189L31 190L100 190L78 189L31 189z"/>
</svg>
